<?xml version="1.0" encoding="UTF-8"?>
<svg width="100px" height="100px" viewBox="0 0 100 100" version="1.1" xmlns="http://www.w3.org/2000/svg" xmlns:xlink="http://www.w3.org/1999/xlink">
    <!-- Generator: Sketch 57 (83077) - https://sketch.com -->
    <title>Fee</title>
    <desc>Created with Sketch.</desc>
    <defs>
        <path d="M46,48.4148936 C46,52.7184612 44.4192598,56.4053038 41.257732,59.4755319 C38.0962041,62.54576 33.5384032,64.4482233 27.5841924,65.1829787 L27.5841924,74 L19.6804124,74 L19.6804124,65.4191489 C15.7811947,65.2092188 12.0664552,64.5269561 8.53608247,63.3723404 C5.00570973,62.2177247 2.16037735,60.8007176 0,59.1212766 L4.34707904,49.5170213 C6.34938,50.9865322 8.69414464,52.2198532 11.3814433,53.2170213 C14.068742,54.2141894 16.8350373,54.8439703 19.6804124,55.106383 L19.6804124,41.9595745 C15.9392711,41.0673714 12.7777907,40.0702183 10.1958763,38.9680851 C7.61396189,37.8659519 5.45361694,36.2521383 3.71477663,34.1265957 C1.97593632,32.0010532 1.10652921,29.1801594 1.10652921,25.6638298 C1.10652921,21.3077796 2.70044225,17.5684553 5.88831615,14.4457447 C9.07619005,11.323034 13.6735095,9.42057079 19.6804124,8.73829787 L19.6804124,0 L27.5841924,0 L27.5841924,8.58085106 C34.0653245,9.10567638 39.4134955,10.7063696 43.628866,13.3829787 L39.6769759,23.0659574 C35.7250662,20.8092086 31.6941786,19.4446832 27.5841924,18.9723404 L27.5841924,32.3553191 C31.2726416,33.1950397 34.3946035,34.1528315 36.9501718,35.2287234 C39.5057402,36.3046153 41.6529123,37.9053085 43.3917526,40.0308511 C45.1305929,42.1563936 46,44.9510465 46,48.4148936 Z M13.8316151,25.0340426 C13.8316151,26.3461059 14.3321829,27.4219816 15.3333333,28.2617021 C16.3344838,29.1014226 17.7834957,29.8099262 19.6804124,30.387234 L19.6804124,19.2085106 C17.6781114,19.6808534 16.2027491,20.4287183 15.2542955,21.4521277 C14.3058372,22.475537 13.8316151,23.6694967 13.8316151,25.0340426 Z M27.5841924,54.7914894 C29.4811091,54.3716291 30.9037753,53.6893664 31.8522337,52.7446809 C32.800692,51.8 33.2749141,50.6716378 33.2749141,49.3595745 C33.2749141,48.0475112 32.7875192,46.9716354 31.8127148,46.1319149 C30.8379104,45.2921944 29.428417,44.55745 27.5841924,43.9276596 L27.5841924,54.7914894 Z" id="path-1"></path>
    </defs>
    <g id="Fee" stroke="none" stroke-width="1" fill="none" fill-rule="evenodd">
        <g id="fee" transform="translate(28.000000, 14.000000)">
            <mask id="mask-2" fill="white">
                <use xlink:href="#path-1"></use>
            </mask>
            <use id="Mask" fill="#848E9C" fill-rule="nonzero" xlink:href="#path-1"></use>
            <g id="COLOUR/YELLOW" mask="url(#mask-2)" fill="#F0B90B">
                <g transform="translate(-41.000000, -25.000000)" id="Rectangle">
                    <rect x="0" y="0" width="126" height="125"></rect>
                </g>
            </g>
        </g>
    </g>
</svg>