<?xml version="1.0" encoding="UTF-8"?>
<svg width="56px" height="56px" viewBox="0 0 56 56" version="1.1" xmlns="http://www.w3.org/2000/svg" xmlns:xlink="http://www.w3.org/1999/xlink">
    <!-- Generator: Sketch 54.1 (76490) - https://sketchapp.com -->
    <title>形状结合</title>
    <desc>Created with Sketch.</desc>
    <g id="unlock-new" stroke="none" stroke-width="1" fill="none" fill-rule="evenodd">
        <g id="1-wallet-connect-hover" transform="translate(-1189.000000, -607.000000)" fill="#FFFFFF">
            <g id="分组-2" transform="translate(903.000000, 587.000000)">
                <path d="M287.931034,21.9310345 L287.931034,29.6551724 L286,29.6551724 L286,21.9310345 L286,20 L295.655172,20 L295.655172,21.9310345 L287.931034,21.9310345 Z M287.931034,74.0689655 L295.655172,74.0689655 L295.655172,76 L286,76 L286,74.0689655 L286,66.3448276 L287.931034,66.3448276 L287.931034,74.0689655 Z M340.068966,21.9310345 L332.344828,21.9310345 L332.344828,20 L342,20 L342,21.9310345 L342,29.6551724 L340.068966,29.6551724 L340.068966,21.9310345 Z M340.068966,74.0689655 L340.068966,66.3448276 L342,66.3448276 L342,74.0689655 L342,76 L332.344828,76 L332.344828,74.0689655 L340.068966,74.0689655 Z M310.821965,46.2687277 C310.119893,46.2687277 309.550751,45.6995859 309.550751,44.9975138 L309.550751,32.2853746 L298.109826,32.2853746 L298.109826,43.7262999 L304.465896,43.7262999 C305.167968,43.7262999 305.73711,44.2954417 305.73711,44.9975138 C305.73711,45.6995859 305.167968,46.2687277 304.465896,46.2687277 L296.838612,46.2687277 C296.13654,46.2687277 295.567398,45.6995859 295.567398,44.9975138 L295.567398,31.0141606 C295.567398,30.3120886 296.13654,29.7429467 296.838612,29.7429467 L310.821965,29.7429467 C311.524037,29.7429467 312.093179,30.3120886 312.093179,31.0141606 L312.093179,44.9975138 C312.093179,45.6995859 311.524037,46.2687277 310.821965,46.2687277 Z M301.033618,35.2091666 L306.626959,35.2091666 L306.626959,40.8025078 L301.033618,40.8025078 L301.033618,35.2091666 Z M321.373041,35.2091666 L326.966382,35.2091666 L326.966382,40.8025078 L321.373041,40.8025078 L321.373041,35.2091666 Z M331.161388,46.2687277 L323.534104,46.2687277 C322.832032,46.2687277 322.26289,45.6995859 322.26289,44.9975138 C322.26289,44.2954417 322.832032,43.7262999 323.534104,43.7262999 L329.890174,43.7262999 L329.890174,32.2853746 L318.449249,32.2853746 L318.449249,44.9975138 C318.449249,45.6995859 317.880107,46.2687277 317.178035,46.2687277 C316.475963,46.2687277 315.906821,45.6995859 315.906821,44.9975138 L315.906821,31.0141606 C315.906821,30.3120886 316.475963,29.7429467 317.178035,29.7429467 L331.161388,29.7429467 C331.498535,29.7429467 331.821873,29.8768778 332.060272,30.1152766 C332.298671,30.3536755 332.432602,30.6770137 332.432602,31.0141606 L332.432602,44.9975138 C332.432602,45.6995859 331.86346,46.2687277 331.161388,46.2687277 Z M301.033618,55.5485893 L306.626959,55.5485893 L306.626959,61.1419306 L301.033618,61.1419306 L301.033618,55.5485893 Z M310.821965,66.6081505 L296.838612,66.6081505 C296.13654,66.6081505 295.567398,66.0390086 295.567398,65.3369365 L295.567398,51.3535834 C295.567398,50.6515113 296.13654,50.0823695 296.838612,50.0823695 L304.465896,50.0823695 C305.167968,50.0823695 305.73711,50.6515113 305.73711,51.3535834 C305.73711,52.0556555 305.167968,52.6247973 304.465896,52.6247973 L298.109826,52.6247973 L298.109826,64.0657226 L309.550751,64.0657226 L309.550751,51.3535834 C309.550751,50.6515113 310.119893,50.0823695 310.821965,50.0823695 C311.524037,50.0823695 312.093179,50.6515113 312.093179,51.3535834 L312.093179,65.3369365 C312.093179,66.0390086 311.524037,66.6081505 310.821965,66.6081505 Z M317.178035,66.6081505 C316.475963,66.6081505 315.906821,66.0390086 315.906821,65.3369365 L315.906821,51.3535834 C315.906821,50.6515113 316.475963,50.0823695 317.178035,50.0823695 C317.880107,50.0823695 318.449249,50.6515113 318.449249,51.3535834 L318.449249,65.3369365 C318.449249,66.0390086 317.880107,66.6081505 317.178035,66.6081505 Z M331.161388,54.2773754 C331.86346,54.2773754 332.432602,54.8465173 332.432602,55.5485893 C332.432602,56.2506614 331.86346,56.8198033 331.161388,56.8198033 L321.373041,56.8198033 C320.670969,56.8198033 320.101827,56.2506614 320.101827,55.5485893 L320.101827,51.3535834 C320.101827,50.6515113 320.670969,50.0823695 321.373041,50.0823695 C322.075113,50.0823695 322.644255,50.6515113 322.644255,51.3535834 L322.644255,54.2773754 L325.695168,54.2773754 L325.695168,51.3535834 C325.695168,50.6515113 326.26431,50.0823695 326.966382,50.0823695 L331.161388,50.0823695 C331.86346,50.0823695 332.432602,50.6515113 332.432602,51.3535834 C332.432602,52.0556555 331.86346,52.6247973 331.161388,52.6247973 L328.237596,52.6247973 L328.237596,54.2773754 L331.161388,54.2773754 Z M331.161388,66.6081505 C330.459316,66.6081505 329.890174,66.0390086 329.890174,65.3369365 L329.890174,61.0148092 L321.373041,61.0148092 C320.670969,61.0148092 320.101827,60.4456674 320.101827,59.7435953 C320.101827,59.0415232 320.670969,58.4723814 321.373041,58.4723814 L331.161388,58.4723814 C331.86346,58.4723814 332.432602,59.0415232 332.432602,59.7435953 L332.432602,65.3369365 C332.432602,66.0390086 331.86346,66.6081505 331.161388,66.6081505 Z M321.373041,66.6081505 C320.670969,66.6081505 320.101827,66.0390086 320.101827,65.3369365 L320.101827,63.9386012 C320.101827,63.2365292 320.670969,62.6673873 321.373041,62.6673873 C322.075113,62.6673873 322.644255,63.2365292 322.644255,63.9386012 L322.644255,65.3369365 C322.644255,66.0390086 322.075113,66.6081505 321.373041,66.6081505 Z M325.568047,66.6081505 C324.865975,66.6081505 324.296833,66.0390086 324.296833,65.3369365 L324.296833,63.9386012 C324.296833,63.2365292 324.865975,62.6673874 325.568047,62.6673874 C326.270119,62.6673874 326.839261,63.2365292 326.839261,63.9386012 L326.839261,65.3369365 C326.839261,66.0390086 326.270119,66.6081505 325.568047,66.6081505 Z" id="形状结合"></path>
            </g>
        </g>
    </g>
</svg>